<svg id="Ebene_1" data-name="Ebene 1" xmlns="http://www.w3.org/2000/svg" viewBox="0 0 535.76 620.89"><defs><style>.cls-1{fill:#fff;}</style></defs><path id="b4APnxcPI9" class="cls-1" d="M572.81,51.6c2.43,79.88,2.68,160.19,2.85,240.1-.38,29.54.58,60-1.52,89.43-1.53,12.08-2.74,24.26-4,36.37q-3,31.81-6.54,63.61c-1.11,9.64-2.58,19.26-3,29-.14,10.68.17,11.58-9.2,17.6-4.32,2.73-8.75,5.34-12.9,8.31-1.15.85-2.33,1.72-3.41,2.65-.43.45-1.07.85-1.26,1.45a8.78,8.78,0,0,0,1.4,2c1.08,1.24,2.22,2.53,3.35,3.74,3.61,3.9,7.36,7.75,11.11,11.52a332.5,332.5,0,0,1,38.08,43.44c3.8,5.22,7.5,10.71,10.88,16.21a46.32,46.32,0,0,1,2.74,4.72,5.63,5.63,0,0,1-.87,2.73c-1.45,2.9-8.62,11.46-11.52,10.77a35.8,35.8,0,0,1-3.86-4.56c-2.16-2.83-4.22-5.79-6.21-8.73a283.56,283.56,0,0,0-67.94-70.1A192.66,192.66,0,0,0,490.81,539c-6.45-3.41-20.8-9.58-27.65-12.48-8.67,6.08-24.65,17.37-33.29,22.83a85.3,85.3,0,0,1-9.68,5.67c-.78.47-1.58-.16-2.3-.49-3.2-1.71-6.32-3.68-9.37-5.65-10.35-6.53-20.11-14.07-30.85-20a5.59,5.59,0,0,0-1.05-.39,6,6,0,0,0-1.63.7c-3.17,1.68-6.21,3.69-9.24,5.63-10.47,6.67-20.35,14.41-31.42,20.09a4,4,0,0,1-.88.29,6.61,6.61,0,0,1-1.75-.7c-2.13-1.07-4.21-2.35-6.24-3.6-7.81-4.79-15.26-10.17-22.93-15.18-3.13-2-6.31-4.1-9.55-6a12.7,12.7,0,0,0-2.69-1.27,9,9,0,0,0-2,.86c-9.62,5.49-18.55,12.11-27.84,18.14-3.43,2.23-6.91,4.45-10.49,6.43-3.22,1.76-2.79,1.52-6-.16-9.44-5.49-18.53-11.66-27.37-18.06-1.62-1.19-3.37-2.52-4.91-3.8a12,12,0,0,0-4.58-2.82c-5.25-1.36-12.14,1.94-17.08,3.76a178.15,178.15,0,0,0-19.84,9.17C142.35,557.51,119.78,581,100,605.65c-5.09,6.5-10.16,13.07-14.75,19.93-2.33,3.32-3.63,6.75-5.44,9.95-3.88-2.64-9.74-5.41-12.91-8.9a3.47,3.47,0,0,1-1.08-3.72c1.25-4.54,4-8.72,6.49-12.69A293.75,293.75,0,0,1,95,580.45a259.8,259.8,0,0,1,29-29.51c2.33-2.06,4.66-4.17,6.86-6.37.87-1,2.06-1.89,2.57-3.14a6.44,6.44,0,0,0-1.68-1.93c-1.3-1.14-2.68-2.25-4.07-3.29-4.75-3.61-15.27-10.61-20.28-14.13-2.79-29.46-5.47-61.06-8.94-90.26-1.15-10.09-2.58-20.26-3.78-30.35-1-12.57-1.21-25.43-1.48-38.05-.9-73.08-.59-146.36-.14-219.44.23-26,.51-52.34.94-78.38.13-8.78.29-18.3.46-27.08a150,150,0,0,1,1.6-23.88H571C571.21,18.37,572.76,48.8,572.81,51.6ZM138.66,41.35a62,62,0,0,0-9.62.76,12.09,12.09,0,0,0-2.79.74c-.38.14-.57.7-.72,1-1.29,4.42-1.44,9.24-1.87,13.81-.72,9.65-1.12,19.61-1.48,29.29-2.48,70.56-3.84,141.34-2.22,211.93.89,46.85,3.64,93.81,7.42,140.51,1.59,19.67,2.83,39.49,5.12,59.09,1.06,5.28,13,14.31,17.44,17.55,3.06,2.09,6.25,4.29,9.78,5.5a5.27,5.27,0,0,0,1.89.25,12.9,12.9,0,0,0,1.91-.53c8.9-3.4,16.83-8.8,25.33-13,2.18-1.1,4.42-2.17,6.7-3.06a11.48,11.48,0,0,1,4.38-1.15c3.71.69,7.17,2.49,10.64,3.92,10.57,4.64,28.2,14,38.56,19.42C260.7,521.28,284,509,295.63,503l37.82,25.8c6.06-3,24.1-12,29.81-14.91C367,512,370.88,510,375,509.11c6.44-1.2,12.62,2.06,18.39,4.48,8.1,3.69,20.18,9.23,28.4,12.94,9-6.17,27.14-18.33,36.26-24.24,9,2.65,19,6.09,28,8.69,6.18,1.83,12.45,3.76,18.9,4.19,4.89.38,27.85-9.24,30.17-13.41,3.1-15.65,4.2-31.68,6-47.53,1.75-17.79,4.28-35.58,5.23-53.45,2.15-35.88,3.77-72,5.16-107.93.47-13.15,1.06-26.64,1.07-39.8-.15-8.49-.55-17.13-.93-25.62C549.5,181.7,547.17,135.71,544.8,90c-.55-9.81-1.22-19.71-2.09-29.5-.3-2.9-.56-6-1-8.88a16.13,16.13,0,0,0-.92-4.25C528.11,46,515,46.3,502.19,45.77c-29.34-.66-59.08-1.2-88.43-1.58C322.12,42.85,230.3,42.57,138.66,41.35Zm115,387.49c2.86.66,5.63,1.94,8.43,2.84,12.93,4.11,26.22,7.33,39.44,10.39,11.08,2.28,22.23,5.41,33.62,5.28,6.84-.11,13.64-1.65,20.34-3,11.62-2.37,23.23-5.22,34.64-8.48,6.38-1.8,12.73-4,19.18-5.57,1.39-.32,2.81-.71,4.22-.92a3.93,3.93,0,0,1,1.83-.11l0,.15c-1.43,2.43-4,4.2-6,6.18-4.52,3.93-9.25,7.83-14,11.49a114.24,114.24,0,0,1-13,9.1,107.26,107.26,0,0,1-18.65,7.35c-6.28,2-12.75,3.54-19.17,4.89a48.8,48.8,0,0,1-20.41.8c-25.66-4.32-50.65-14.69-67.86-34.84C255.3,433.23,250,428.06,253.63,428.84Zm206.3-146.26c12.95,3,23.6,15.11,24.35,28.45.4,9.35-5.11,18.13-12,24a30.73,30.73,0,0,1-33.7,2.73c-6.53-4-11.27-10.74-14.09-17.79-3.91-9.08-.7-18.05,5.07-25.48C436.38,285.1,448.44,279.82,459.93,282.58Zm-239,.22c11.11,2.91,21,12.54,21.53,24.39.3,4.79.67,9.9-.67,14.57-1.25,4.05-4.12,7.44-6.89,10.56-2.47,2.65-5,5.67-8.48,7-3.34,1.21-7.12,1.12-10.62,1.18a68.41,68.41,0,0,1-12.23-.62c-8.58-1.8-16.33-12.09-18.65-20.2a29.87,29.87,0,0,1,5.38-27.16C198.1,284.07,209.57,279.66,220.92,282.8Z" transform="translate(-65.69 -14.64)"/></svg>
